<svg width="48" height="48" fill="none" xmlns="http://www.w3.org/2000/svg"><path fill="currentColor" d="M25.18 32.5V16.9h6.2q2.66 0 4.58.94a6.6 6.6 0 0 1 2.93 2.7 8 8 0 0 1 1.02 4.16q0 2.33-1.05 4.1a7 7 0 0 1-2.98 2.74q-1.93.96-4.5.96zm6.35-1.8q1.91 0 3.29-.72a5 5 0 0 0 2.1-2.08q.73-1.35.73-3.2t-.73-3.2a5 5 0 0 0-2.11-2.07q-1.37-.71-3.28-.71H27.4v11.97zm-21.56-.68q1.47.45 2.77.64 1.3.2 2.66.2 1.37 0 2.42-.31 1.05-.32 1.61-.91t.56-1.4q0-.9-.57-1.56a3.5 3.5 0 0 0-1.65-1 8 8 0 0 0-2.56-.35h-1.87v-1.79h1.87q1.3 0 2.2-.3t1.37-.9.46-1.45q0-.72-.48-1.26a3 3 0 0 0-1.36-.83q-.9-.3-2.04-.3-1.35 0-2.7.23t-2.39.66v-1.84q1.02-.43 2.34-.67 1.34-.23 2.75-.23a10 10 0 0 1 3.28.5q1.4.49 2.13 1.44.72.93.73 2.22a3.5 3.5 0 0 1-.67 2.09 4.5 4.5 0 0 1-1.87 1.46q1.54.5 2.42 1.55t.87 2.41q0 1.31-.84 2.33a5.4 5.4 0 0 1-2.42 1.56q-1.56.55-3.63.55-1.56 0-2.89-.22-1.33-.2-2.5-.64z"/></svg>