<svg width="16" height="16" fill="none" xmlns="http://www.w3.org/2000/svg"><path fill="currentColor" d="M7.73 11V5.04h2.37q.52 0 .97.1.45.08.8.27a2.6 2.6 0 0 1 1.4 1.76 4 4 0 0 1 0 1.68 3 3 0 0 1-.77 1.32 3 3 0 0 1-1.45.73q-.44.1-.95.1zm2.43-.7q.39 0 .72-.07.31-.07.58-.22a2 2 0 0 0 .78-.8q.13-.26.2-.56a3 3 0 0 0-.2-1.82 2 2 0 0 0-.78-.8 2 2 0 0 0-.58-.22 3 3 0 0 0-.72-.08H8.58v4.58zM2 10.05a10 10 0 0 0 .92.23 8 8 0 0 0 1.15.1q.38 0 .69-.07.32-.06.56-.18.23-.14.37-.32.15-.18.14-.44a1 1 0 0 0-.12-.45q-.12-.21-.35-.36t-.57-.22T4 8.26h-.72v-.69H4q.36 0 .64-.06t.48-.18a1 1 0 0 0 .31-.31 1 1 0 0 0 .05-.74l-.15-.23a1 1 0 0 0-.23-.18q-.15-.08-.3-.12a2 2 0 0 0-.74-.1 6 6 0 0 0-1.95.34v-.7a4 4 0 0 1 .9-.26 6 6 0 0 1 2.02.01q.44.11.74.31t.47.5.17.68a1.4 1.4 0 0 1-.57 1.12q-.18.13-.4.24.3.09.52.24.24.15.4.35a1.4 1.4 0 0 1 .01 1.8q-.15.2-.38.35t-.52.25-.65.16a5 5 0 0 1-1.39.03 6 6 0 0 1-1.43-.3z"/></svg>