<svg width="48" height="48" fill="none" xmlns="http://www.w3.org/2000/svg"><path fill="currentColor" d="M38.88 11.49v.5c-1.63 0-3.22.07-4.58.2-1.38.15-2.48.36-3.16.66q-.85.36-2.72 1.92a85 85 0 0 0-4.62 4.26l-.12.12-.16.02q-6.6.9-9.17 1.77a9 9 0 0 0-3.08 1.75 5 5 0 0 0-1.45 1.97c-.27.82-.32 1.5-.32 3.29v.45c0 .97.77 1.74 1.7 1.74h4.57v.5a4.56 4.56 0 0 0 4.52 4.61h.62a4.56 4.56 0 0 0 4.52-4.6v-.5h13.45v1H26.41a5.55 5.55 0 0 1-5.5 5.1h-.62a5.55 5.55 0 0 1-5.5-5.1H11.2c-1.5 0-2.7-1.24-2.7-2.75v-.45c0-1.8.05-2.62.37-3.6.25-.78.87-1.64 1.74-2.4a10 10 0 0 1 3.42-1.96q2.7-.9 9.19-1.8A84 84 0 0 1 27.78 14a14 14 0 0 1 2.96-2.07c.83-.36 2.06-.59 3.46-.73s3.03-.2 4.68-.21z"/><path fill="currentColor" d="M13.37 10.35c.87 0 1.84.52 2.86 1.32a31 31 0 0 1 3.62 3.53l1.3 1.37.06.06.04.1.13.32-.93.37-.1-.23-1.24-1.32a30 30 0 0 0-3.5-3.41c-1-.79-1.73-1.1-2.24-1.1a5 5 0 0 0-2.17.34c-.43.22-.71.54-1.2 1.08l-.37-.33-.37-.34c.45-.5.86-.98 1.48-1.3a6 6 0 0 1 2.63-.46"/></svg>