<svg width="24" height="24" fill="none" xmlns="http://www.w3.org/2000/svg"><path fill="currentColor" d="m20.13 17.51-6.57-.01a3.8 3.8 0 0 1-3.73 3.1H9.8a3.76 3.76 0 0 1-3.7-3.08l-1.44-.02a2 2 0 0 1-1.44-.68 2.2 2.2 0 0 1-.62-1.45v-1.59q.02-.6.18-1.14c.18-.54.6-1.08 1.15-1.53a7 7 0 0 1 2.1-1.16c1.04-.34 2.63-.67 5.02-1q1.47-1.42 2.51-2.27a8 8 0 0 1 1.79-1.22 8 8 0 0 1 2.08-.44c.82-.08 1.75-.11 2.7-.12zM5.53 3.65A3.8 3.8 0 0 1 8.3 4.83c.7.69 1.34 1.66 2.03 2.73l-1.25.82A15 15 0 0 0 7.25 5.9a2.3 2.3 0 0 0-1.72-.75c-.7 0-1.26.1-1.55.43L2.85 4.6c.77-.9 2-.95 2.68-.95"/></svg>