<svg width="48" height="48" fill="none" xmlns="http://www.w3.org/2000/svg"><path fill="currentColor" d="M38.88 11.4v.5c-1.63 0-3.22.07-4.58.2-1.38.15-2.48.36-3.16.66q-.85.36-2.72 1.92a85 85 0 0 0-4.62 4.26l-.12.12-.16.02q-6.6.9-9.17 1.77a9 9 0 0 0-3.08 1.75 5 5 0 0 0-1.45 1.97c-.27.82-.32 1.5-.32 3.29v.45c0 .97.77 1.74 1.7 1.74h4.57v.5a4.56 4.56 0 0 0 4.52 4.61h.62a4.56 4.56 0 0 0 4.52-4.6v-.5h13.45v1H26.41a5.55 5.55 0 0 1-5.5 5.1h-.62a5.55 5.55 0 0 1-5.5-5.1H11.2c-1.5 0-2.7-1.24-2.7-2.75v-.45c0-1.8.05-2.62.37-3.6.25-.78.87-1.64 1.74-2.4a10 10 0 0 1 3.42-1.96q2.7-.9 9.19-1.8a84 84 0 0 1 4.56-4.19 14 14 0 0 1 2.96-2.07c.83-.36 2.06-.59 3.46-.73s3.03-.2 4.68-.21z"/></svg>