<svg width="24" height="24" fill="none" xmlns="http://www.w3.org/2000/svg"><path fill="currentColor" d="M20.54 5.24v.5c-.96 0-1.89.04-2.68.11q-1.23.13-1.8.37-.46.18-1.56 1.08-1.08.9-2.71 2.46l-.12.11-.16.03c-2.6.34-4.22.68-5.22 1.01q-1.09.39-1.79.99c-.46.39-.73.77-.82 1.04q-.1.28-.11.84t0 1.34v.26c0 .2.1.46.3.68.2.21.44.32.62.32l2.65.04v.49c0 1.49 1.2 2.69 2.68 2.69h.03c1.5 0 2.72-1.22 2.72-2.72v-.5l7.97.02v1l-7-.02a3.7 3.7 0 0 1-3.69 3.22h-.03a3.7 3.7 0 0 1-3.65-3.2l-1.69-.02a2 2 0 0 1-1.34-.64 2 2 0 0 1-.58-1.36v-1.64q.02-.61.17-1.12c.17-.5.59-1.04 1.13-1.49a7 7 0 0 1 2.12-1.16c1.06-.36 2.72-.7 5.23-1.04q1.56-1.5 2.65-2.4a9 9 0 0 1 1.8-1.23 8 8 0 0 1 2.1-.44 30 30 0 0 1 2.78-.12z"/></svg>