<svg width="24" height="24" fill="none" xmlns="http://www.w3.org/2000/svg"><path fill="currentColor" d="M21.35 3.35 1.85 22.98l-.7-.7 19.5-19.63zM1 8.5c0-.41.14-.8.42-1.08A1.5 1.5 0 0 1 2.5 7H6v-.5c0-.41.14-.8.42-1.08A1.5 1.5 0 0 1 7.5 5H16v1H7.5q-.27.01-.37.13-.12.1-.13.37V8H2.5q-.27.01-.37.13-.12.1-.13.37V20H1zm21 10V8h-3V7h4v11.5c0 .41-.14.8-.42 1.08a1.5 1.5 0 0 1-1.08.42H7v-1h14.5q.28-.01.37-.13.12-.1.13-.37M16 13c0-.85-.27-1.64-.72-2.3l.41-.28.4-.28a5 5 0 0 1-6.88 7.02l.29-.42.28-.41A4 4 0 0 0 16 13m-9 0a5 5 0 0 1 6.28-4.83l-.13.48-.12.48a4.01 4.01 0 0 0-4.87 4.98l-.48.14-.48.14A5 5 0 0 1 7 13"/></svg>