<svg width="24" height="24" fill="none" xmlns="http://www.w3.org/2000/svg"><path fill="currentColor" d="m16.55 5-3.17 3.2a5 5 0 0 0-6.18 6.2L1.64 20H1V8.5c0-.41.14-.8.42-1.08A1.5 1.5 0 0 1 2.5 7H6v-.5c0-.41.14-.8.42-1.08A1.5 1.5 0 0 1 7.5 5z"/><path fill="currentColor" d="M12.54 9.04 12 9a4 4 0 0 0-3.96 4.56zm-2.48 7.46 5.43-5.46q.5.88.51 1.96a4 4 0 0 1-5.94 3.5"/><path fill="currentColor" d="M9.33 17.23a5 5 0 0 0 6.88-6.92L19.5 7H23v11.5c0 .41-.14.8-.42 1.08a1.5 1.5 0 0 1-1.08.42H6.58zm13.2-14.7L2.03 23.15.97 22.1l20.5-20.63z"/></svg>