<svg width="16" height="16" fill="none" xmlns="http://www.w3.org/2000/svg"><path fill="currentColor" d="m15.35 1.35-14 14-.7-.7 14-14zM15 13.5V3h1v10.5c0 .41-.14.8-.42 1.08a1.5 1.5 0 0 1-1.08.42H4v-1h10.5q.28-.01.37-.13.12-.1.13-.37m-15-9c0-.41.14-.8.42-1.08A1.5 1.5 0 0 1 1.5 3H3v-.5c0-.41.14-.8.42-1.08A1.5 1.5 0 0 1 4.5 1H12v1H4.5q-.27.01-.37.13-.12.1-.13.37V4H1.5q-.27.01-.37.13-.12.1-.13.37V13H0zm11 4q0-.7-.29-1.29l.9-.42A4 4 0 0 1 8 12.5q-.93-.01-1.71-.38l.42-.9q.6.27 1.29.28a3 3 0 0 0 3-3m-7 0a4 4 0 0 1 5.14-3.83l-.28.95a3 3 0 0 0-3.74 3.74l-.95.28A4 4 0 0 1 4 8.5"/></svg>