<svg width="24" height="24" fill="none" xmlns="http://www.w3.org/2000/svg"><path fill="currentColor" d="M23 5.5a.5.5 0 0 0-.17-.33.5.5 0 0 0-.33-.17H1v13.5c0 .3.24.5.5.5H23zM24 20H1.5C.76 20 0 19.4 0 18.5V4h22.5c.41 0 .78.2 1.04.46s.46.63.46 1.04z"/><path fill="currentColor" d="M9.06 8.44q.65 0 1.24.1.6.1 1.04.29v.9a5 5 0 0 0-2.14-.4q-.95 0-1.62.32-.68.34-1.03.98-.36.64-.35 1.55 0 .9.35 1.55.35.63 1.04.98.68.34 1.58.34.67 0 1.27-.09.6-.1 1.06-.26v.86q-.44.17-1.04.27-.6.09-1.31.09-1.21 0-2.13-.45a3.2 3.2 0 0 1-1.4-1.3 4 4 0 0 1-.47-2q0-1.1.49-1.95t1.38-1.31q.9-.47 2.04-.47m7.48 0q.65 0 1.24.1.6.1 1.04.29v.9a5 5 0 0 0-2.14-.4q-.95 0-1.62.32-.68.34-1.03.98-.36.64-.35 1.55 0 .9.35 1.55.36.63 1.04.98t1.58.34q.68 0 1.27-.09.6-.1 1.06-.26v.86q-.44.17-1.04.27-.6.09-1.31.09-1.21 0-2.13-.45a3.2 3.2 0 0 1-1.4-1.3 4 4 0 0 1-.47-2q0-1.1.49-1.95t1.39-1.31 2.03-.47"/></svg>