<svg width="48" height="48" fill="none" xmlns="http://www.w3.org/2000/svg"><path fill="currentColor" d="M37.96 30.52q-.87.35-2.08.53-1.2.2-2.63.19a9.5 9.5 0 0 1-4.25-.9 6.4 6.4 0 0 1-2.78-2.59 8 8 0 0 1-.97-4q0-2.2.98-3.9a6.7 6.7 0 0 1 2.78-2.64 9 9 0 0 1 4.07-.93q1.3 0 2.49.2t2.06.58v1.78a12 12 0 0 0-4.28-.8q-1.88 0-3.24.67-1.35.67-2.05 1.95t-.7 3.1q0 1.8.7 3.09a4.7 4.7 0 0 0 2.08 1.97q1.35.68 3.16.68 1.35 0 2.54-.18 1.2-.18 2.12-.52zm-14.96 0q-.87.35-2.08.53-1.2.2-2.63.19a9.5 9.5 0 0 1-4.25-.9 6.4 6.4 0 0 1-2.78-2.59 8 8 0 0 1-.97-4q0-2.2.98-3.9a6.7 6.7 0 0 1 2.78-2.64 9 9 0 0 1 4.07-.93q1.3 0 2.49.2t2.06.58v1.78a12 12 0 0 0-4.28-.8q-1.89 0-3.24.67t-2.05 1.95-.7 3.1q0 1.8.7 3.09a4.7 4.7 0 0 0 2.08 1.97q1.35.68 3.16.68 1.35 0 2.54-.18 1.2-.18 2.11-.52z"/><path fill="currentColor" d="M46 9.5c0-.82-.68-1.5-1.5-1.5H2v30.5c0 .82.68 1.5 1.5 1.5H46zM47 41H3.5A2.5 2.5 0 0 1 1 38.5V7h43.5A2.5 2.5 0 0 1 47 9.5z"/></svg>