<svg width="16" height="16" fill="none" xmlns="http://www.w3.org/2000/svg"><path fill="currentColor" d="M15 3.5a.5.5 0 0 0-.5-.5h-13a.5.5 0 0 0-.5.5v9c0 .28.22.5.5.5h13a.5.5 0 0 0 .5-.5zm1 9c0 .83-.67 1.5-1.5 1.5h-13A1.5 1.5 0 0 1 0 12.5v-9C0 2.67.67 2 1.5 2h13c.83 0 1.5.67 1.5 1.5z"/><path fill="currentColor" d="m13.21 10.48-.53.17a5 5 0 0 1-2.97-.15 2.3 2.3 0 0 1-1-.92q-.33-.6-.33-1.41 0-.79.35-1.4t1-.93 1.52-.32a5 5 0 0 1 1.89.37v.89a5 5 0 0 0-1.8-.38q-.57 0-.98.2-.4.21-.62.62a2 2 0 0 0-.2.95q0 .54.2.95.22.4.62.6.41.22.97.22a6 6 0 0 0 1.88-.32zm-5.55 0-.53.17a5 5 0 0 1-2.97-.15 2.3 2.3 0 0 1-1-.92q-.33-.6-.33-1.41 0-.79.35-1.4t1-.93 1.52-.32a5 5 0 0 1 1.88.37v.89a5 5 0 0 0-1.8-.38q-.57 0-.97.2t-.62.62a2 2 0 0 0-.21.95q0 .54.21.95.22.4.62.6.41.22.97.22a6 6 0 0 0 1.88-.32z"/></svg>