<svg width="24" height="24" fill="none" xmlns="http://www.w3.org/2000/svg"><path fill="currentColor" d="M22.5 4c.41 0 .78.2 1.04.46s.46.63.46 1.04V20H1.5C.76 20 0 19.4 0 18.5V4zM9.06 8.44q-1.14 0-2.04.47t-1.38 1.31a4 4 0 0 0-.5 1.96q0 1.16.49 2 .48.84 1.4 1.3.9.44 2.12.44.7 0 1.31-.1.6-.08 1.04-.26v-.86q-.46.17-1.06.26-.6.1-1.27.1-.9 0-1.58-.35t-1.04-.99a3 3 0 0 1-.35-1.54q0-.9.35-1.55a2.3 2.3 0 0 1 1.03-.97q.67-.34 1.62-.34a6 6 0 0 1 2.14.4v-.89q-.45-.19-1.04-.29t-1.24-.1m7.48 0q-1.14 0-2.04.47t-1.38 1.31a4 4 0 0 0-.5 1.96q0 1.16.49 2 .48.84 1.4 1.3.9.44 2.12.44.7 0 1.31-.1.6-.08 1.04-.26v-.86q-.46.17-1.06.26-.6.1-1.27.1-.9 0-1.58-.35t-1.04-.99a3 3 0 0 1-.35-1.54q0-.9.35-1.55a2.3 2.3 0 0 1 1.03-.97q.67-.34 1.62-.34a6 6 0 0 1 2.14.4v-.89q-.45-.19-1.04-.29t-1.24-.1"/></svg>