<svg width="48" height="48" fill="none" xmlns="http://www.w3.org/2000/svg"><path fill="currentColor" d="M30 6.3v6.4l-5 5V26h-1v-8.7l5-5V6.7l-3.5-3.5-.5.5v4L23.7 9h-5.4L17 7.7v-4l-.5-.5L13 6.7v5.6l5 5v25.2c0 1.42 1.08 2.5 2.5 2.5h1c1.13 0 2.04-.68 2.37-1.66l.94.32A3.4 3.4 0 0 1 21.5 46h-1a3.45 3.45 0 0 1-3.5-3.5V17.7l-5-5V6.3l4.5-4.5L18 3.3v4l.7.7h4.6l.7-.7v-4l1.5-1.5zM35 34h4v1h-5v-8h1z"/><path fill="currentColor" d="M34.5 23C40.88 23 46 28.12 46 34.5S40.88 46 34.5 46 23 40.88 23 34.5 28.12 23 34.5 23m0 1C28.68 24 24 28.68 24 34.5S28.68 45 34.5 45 45 40.32 45 34.5 40.32 24 34.5 24"/></svg>