<svg width="24" height="24" fill="none" xmlns="http://www.w3.org/2000/svg"><path fill="currentColor" d="m11.91 22.79-.41.59-.41-.6.41-.28zM18 8.5C18 4.88 15.12 2 11.5 2A6.46 6.46 0 0 0 5 8.5c0 .86.4 2.14 1.05 3.63a48 48 0 0 0 2.38 4.58 91 91 0 0 0 3.07 4.9 88 88 0 0 0 3.07-4.9c.87-1.5 1.73-3.1 2.38-4.58A10 10 0 0 0 18 8.5m-4 0a2.5 2.5 0 1 0-5 0 2.5 2.5 0 0 0 5 0m1 0a3.5 3.5 0 1 1-7 0 3.5 3.5 0 0 1 7 0m4 0c0 1.09-.48 2.53-1.14 4.03a49 49 0 0 1-2.43 4.68 92 92 0 0 1-3.5 5.54l-.01.03-.42-.28-.41.28-.02-.03-.28-.41a89 89 0 0 1-3.22-5.13 49 49 0 0 1-2.43-4.68C4.48 11.03 4 9.6 4 8.5 4 4.32 7.32 1 11.5 1S19 4.32 19 8.5"/></svg>