<svg width="48" height="48" fill="none" xmlns="http://www.w3.org/2000/svg"><path fill="currentColor" d="m23.9 44.8-.4.55-.4-.56.4-.29zM37 17.5C37 10.08 30.92 4 23.5 4S10 10.08 10 17.5c0 1.8.83 4.37 2.14 7.26a89 89 0 0 0 4.79 8.87 169 169 0 0 0 6.38 9.74l.19.27.2-.27a166 166 0 0 0 6.37-9.74 88 88 0 0 0 4.79-8.87c1.3-2.89 2.14-5.45 2.14-7.26m-7 0a6.5 6.5 0 1 0-13 0 6.5 6.5 0 0 0 13 0m1 0a7.5 7.5 0 1 1-15 0 7.5 7.5 0 0 1 15 0m7 0c0 2.04-.92 4.78-2.23 7.67a90 90 0 0 1-4.84 8.98 170 170 0 0 1-6.87 10.42l-.11.17-.04.04v.01l-.41-.29-.4.3v-.01l-.02-.01-.03-.04-.11-.17a120 120 0 0 1-2.04-2.92 170 170 0 0 1-4.83-7.5 90 90 0 0 1-4.84-8.98C9.92 22.27 9 19.54 9 17.5 9 9.52 15.52 3 23.5 3S38 9.52 38 17.5"/></svg>