<svg width="16" height="16" fill="none" xmlns="http://www.w3.org/2000/svg"><path fill="currentColor" d="M12.84 5.11a5 5 0 0 1 1.24.19q.18.06.31.13v.65a2 2 0 0 0-.68-.22 4 4 0 0 0-.83-.08q-.3 0-.55.07a1.5 1.5 0 0 0-.8.54q-.13.2-.24.45-.08.26-.14.58a4.5 4.5 0 0 0 .19 2.02q.11.25.27.45a1.6 1.6 0 0 0 .8.5q.24.06.5.06a5 5 0 0 0 1.24-.16l.32-.12v.64a3.4 3.4 0 0 1-1.64.29q-.39 0-.72-.09a2 2 0 0 1-1.1-.67 2 2 0 0 1-.38-.59q-.15-.33-.22-.75a5 5 0 0 1 .2-2.47q.15-.33.36-.6a2 2 0 0 1 1.11-.72q.34-.1.76-.1M3.4 9.42l.06.17.15.53a4 4 0 0 1 .19-.7L5.12 5.2h.75l1.32 4.21a5 5 0 0 1 .2.7 4 4 0 0 1 .2-.7L8.91 5.2h.8L7.79 11H7L5.73 7.1a7 7 0 0 1-.24-.94 10 10 0 0 1-.23.95L3.99 11H3.2L1.28 5.2h.8z"/></svg>