<svg width="48" height="48" fill="none" xmlns="http://www.w3.org/2000/svg"><path fill="currentColor" d="M44.8 31.98q-.94.37-2.24.58t-2.83.2q-2.61 0-4.58-.97a7 7 0 0 1-3-2.79 8.5 8.5 0 0 1-1.03-4.3q0-2.39 1.05-4.22a7 7 0 0 1 2.99-2.83q1.94-1 4.38-1 1.4 0 2.68.22 1.29.21 2.23.62v1.92q-1.05-.42-2.22-.65-1.18-.22-2.39-.22a8 8 0 0 0-3.5.72 5 5 0 0 0-2.2 2.1q-.76 1.39-.76 3.34 0 1.94.76 3.33a5 5 0 0 0 2.23 2.12q1.48.74 3.4.74 1.47 0 2.75-.2 1.27-.2 2.27-.56zm-22.28.52-4.17-10.23-1.06-2.56-1.03 2.56-4.18 10.23H9.82L3.08 16.9H5.5l4.37 10.54 1.1 2.63 1.06-2.63 4.22-10.54h2.09l4.26 10.65 1.08 2.65 1.12-2.65 4.43-10.65h2.29l-6.74 15.6z"/></svg>