<svg width="48" height="48" fill="none" xmlns="http://www.w3.org/2000/svg"><path fill="currentColor" d="M24 21.5a3.5 3.5 0 1 1 0 7 3.5 3.5 0 0 1 0-7m0 1a2.5 2.5 0 1 0 0 5 2.5 2.5 0 0 0 0-5"/><path fill="currentColor" d="M24 9a15.97 15.97 0 0 1 15.6 19.61A16 16 0 1 1 24 9m2.14 8.8-.33-.08a7.5 7.5 0 0 0-3.62 0l-.33.08-4.53-6.24a15 15 0 0 0-4.04 2.95l4.33 5.96.2.27-.18.29a7.5 7.5 0 0 0-1.12 3.44l-.02.34-7.34 2.38a15 15 0 0 0 1.54 4.76l7.02-2.28.32-.1.22.25a7.5 7.5 0 0 0 2.93 2.13l.31.13v7.71a15 15 0 0 0 5 0v-7.71l.31-.13a7.5 7.5 0 0 0 2.93-2.13l.22-.26.32.1 7.01 2.29a15 15 0 0 0 1.55-4.76l-7.34-2.38-.02-.34a7.5 7.5 0 0 0-1.12-3.44l-.18-.29 4.53-6.23a15 15 0 0 0-4.04-2.95zM11.2 32.84a15 15 0 0 0 9.29 6.75v-6.85a9 9 0 0 1-2.78-2.02zm19.07-2.12a9 9 0 0 1-2.78 2.02v6.85a15 15 0 0 0 9.3-6.75zm1.1-9.93q.86 1.5 1.07 3.28l6.5 2.1a15 15 0 0 0-.14-3.59 15 15 0 0 0-3.4-7.32zM12.6 15.26a15 15 0 0 0-3.55 10.92l6.5-2.11q.2-1.8 1.07-3.28zM24 10a15 15 0 0 0-5.75 1.14l4.03 5.54a9 9 0 0 1 3.44 0l4.02-5.54A15 15 0 0 0 24 10"/><path fill="currentColor" d="M24 4.5a20.5 20.5 0 1 1 0 41 20.5 20.5 0 0 1 0-41m0 1a19.5 19.5 0 1 0 0 39 19.5 19.5 0 0 0 0-39"/></svg>