<svg width="24" height="24" fill="none" xmlns="http://www.w3.org/2000/svg"><path fill="currentColor" d="M12 10a2 2 0 1 1 0 4 2 2 0 0 1 0-4m0 1a1 1 0 1 0 0 2 1 1 0 0 0 0-2"/><path fill="currentColor" d="M12 4.5a7.5 7.5 0 1 1-6.18 3.25l.01-.02A7.5 7.5 0 0 1 12 4.5m.82 3.82-.17.23-.28-.03a4 4 0 0 0-.74 0l-.29.03-.16-.23L9.49 6q-1.43.6-2.42 1.77l1.68 2.31.17.23-.12.27q-.15.33-.22.7l-.06.27-.28.1-2.72.88q.14 1.57.93 2.85l3-.97.2.2q.29.23.6.42l.25.15v3.14a6.5 6.5 0 0 0 3 0v-3.14l.25-.15q.32-.18.6-.43l.2-.2 3 .98q.79-1.28.93-2.85l-2.72-.88-.28-.1-.06-.28a4 4 0 0 0-.22-.7l-.12-.26.17-.23 1.68-2.31A6.5 6.5 0 0 0 14.5 6zm-5.75 7.91A6.5 6.5 0 0 0 9.5 18v-2.26l-.29-.2zm7.43-.49V18q1.43-.6 2.43-1.77l-2.15-.7q-.13.12-.28.21m1.72-5.3.11.34 2.15.7a6.5 6.5 0 0 0-.93-2.87zM6.45 8.62a6.5 6.5 0 0 0-.93 2.86l2.15-.7.1-.33zM12 5.5q-.78 0-1.5.18l1.32 1.83.18-.01h.17l1.33-1.82A7 7 0 0 0 12 5.5"/><path fill="currentColor" d="M12 1a11 11 0 1 1 0 22 11 11 0 0 1 0-22m0 1a10 10 0 1 0 0 20 10 10 0 0 0 0-20"/></svg>