<svg width="16" height="16" fill="none" xmlns="http://www.w3.org/2000/svg"><path fill="currentColor" d="M8 2.83a5.16 5.16 0 1 1 0 10.32A5.16 5.16 0 0 1 8 2.83M4.22 9.75a4.2 4.2 0 0 0 3.28 2.38v-2.2a2 2 0 0 1-.87-.47l-.12-.12-.2-.27zm5.42-.6-.12.14a2 2 0 0 1-1.02.65v2.2a4.1 4.1 0 0 0 3.27-2.39L9.7 9.07zM7.84 7a1 1 0 1 0 .32 1.97A1 1 0 0 0 7.84 7M5.17 4.95A4.2 4.2 0 0 0 3.9 8.8L6 8.12v-.29a2 2 0 0 1 .46-1.1zm4.37 1.78.1.13a2 2 0 0 1 .26.52l.04.15A2 2 0 0 1 10 8v.12l2.09.68a4.2 4.2 0 0 0-1.26-3.85zM8 3.83a4 4 0 0 0-2.03.53l1.3 1.78A2 2 0 0 1 8 6l.23.01.22.04.16.04.12.05 1.3-1.78A4 4 0 0 0 8 3.83"/><path fill="currentColor" d="M8 .5a7.5 7.5 0 1 1 0 15 7.5 7.5 0 0 1 0-15m0 1a6.5 6.5 0 1 0 0 13 6.5 6.5 0 0 0 0-13"/></svg>