<svg width="24" height="24" fill="none" xmlns="http://www.w3.org/2000/svg"><path fill="currentColor" d="M12 11a1 1 0 1 1 0 2 1 1 0 0 1 0-2"/><path fill="currentColor" d="M14.5 6q1.43.6 2.43 1.77l-1.68 2.31-.17.23.12.27q.15.33.22.7l.06.28.28.09 2.72.88q-.14 1.57-.93 2.85l-3-.97-.2.2q-.29.23-.6.42l-.25.15v3.14a6.5 6.5 0 0 1-3 0v-3.14l-.25-.15a4 4 0 0 1-.6-.43l-.2-.2-3 .98a6.5 6.5 0 0 1-.93-2.85l2.72-.89.28-.09.06-.28q.07-.36.22-.7l.12-.26-.17-.23-1.68-2.31A6.5 6.5 0 0 1 9.49 6l1.69 2.32.16.23.3-.03a4 4 0 0 1 .73 0l.28.03.17-.23zM12 10a2 2 0 1 0 0 4 2 2 0 0 0 0-4"/><path fill="currentColor" d="M9.5 15.74V18a6.5 6.5 0 0 1-2.43-1.77l2.14-.7zm7.43.49A6.5 6.5 0 0 1 14.5 18v-2.26l.28-.2zm.62-7.62q.79 1.29.93 2.87l-2.15-.7-.11-.34zm-9.77 1.84-.11.33-2.15.7q.14-1.59.93-2.86zM12 5.5q.78 0 1.5.18L12.17 7.5h-.35L10.5 5.69q.74-.18 1.51-.18"/><path fill="currentColor" d="M12 1a11 11 0 1 1 0 22 11 11 0 0 1 0-22m0 3.5a7.5 7.5 0 0 0-6.17 3.23l-.01.01v.01A7.5 7.5 0 1 0 12 4.5"/></svg>