<svg width="16" height="16" fill="none" xmlns="http://www.w3.org/2000/svg"><path fill="currentColor" d="M3 3.86c.72 0 1.46.02 2.12.08a7 7 0 0 1 1.7.32c.76.29 1.7.8 2.55 1.25q.65.35 1.2.6.57.25.88.3c.41.07.72.16 1.1.26.78.2 1.46.89 1.52 1.75l.2 2.64c.06.85-.53 1.6-1.4 1.7l-1.13.19a2.7 2.7 0 0 1-2.7 2.3H9a2.7 2.7 0 0 1-2.68-2.23h-3.3v-1h4.25v.5c0 .96.78 1.73 1.73 1.73h.04c.96 0 1.73-.77 1.73-1.73v-.42l1.93-.33h.05a.6.6 0 0 0 .53-.64l-.2-2.63c-.03-.38-.35-.75-.78-.86-.4-.1-.66-.18-1.02-.24q-.52-.1-1.12-.38-.6-.27-1.26-.62c-.88-.47-1.75-.95-2.44-1.2a6 6 0 0 0-1.43-.26Q4.07 4.86 3 4.86zM11.36 1q.7-.02 1.14.1c.34.12.56.33.77.57l-.38.33-.38.33c-.17-.2-.24-.24-.32-.27a3 3 0 0 0-.83-.06c-.1 0-.32.07-.73.4q-.57.48-1.4 1.43l-.47.52-.02.06-.02-.01-.02.02-.07-.06-.82-.32.05-.13.04-.1.06-.06.52-.58Q9.32 2.2 10 1.63c.43-.35.9-.63 1.36-.63"/></svg>