<svg width="24" height="24" fill="none" xmlns="http://www.w3.org/2000/svg"><path fill="currentColor" d="M5 4.7c1 0 2.01.02 2.92.1.9.08 1.74.22 2.35.44.9.34 2 .93 3.03 1.47l.5.26q.9.48 1.66.83.77.35 1.2.42c.48.08.86.18 1.28.29l.24.06A2.8 2.8 0 0 1 20.3 11l.28 3.64c0 1.18-.76 2.24-1.97 2.35l-1.53.26a3.8 3.8 0 0 1-3.72 3.18h-.06a3.8 3.8 0 0 1-3.7-3.08L5 17.34zM16.56.68a4.4 4.4 0 0 1 2.54.82l.05.04.01.01h.01l-.99 1.13-.07-.05-.32-.18c-.28-.13-.7-.27-1.23-.27-.11 0-.41.1-.97.55q-.78.64-1.92 1.95l-.75.83-1.1-1.01.72-.8q1.17-1.36 2.1-2.13c.6-.49 1.25-.89 1.92-.89"/></svg>