<svg width="48" height="48" fill="none" xmlns="http://www.w3.org/2000/svg"><path fill="currentColor" d="M10.09 13c1.76-.01 3.55.04 5.15.18 1.58.14 3 .38 3.99.74 1.83.7 4.1 1.95 6.22 3.06a56 56 0 0 0 3 1.5q1.42.64 2.34.8 1.44.25 2.9.62c1.77.45 2.63 2.17 3.04 3.57a24 24 0 0 1 .85 6.01c-.11 1.7-1.47 3.28-3.23 3.4l-3.16.23a5.6 5.6 0 0 1-5.58 5.14h-.64a5.6 5.6 0 0 1-5.57-5.1h-9.31v-1h10.28v.5a4.6 4.6 0 0 0 4.6 4.6h.64a4.6 4.6 0 0 0 4.6-4.6v-.47l4.07-.29c1.2-.09 2.22-1.2 2.3-2.47a23 23 0 0 0-.8-5.66c-.4-1.35-1.12-2.58-2.34-2.9a34 34 0 0 0-2.82-.59c-.74-.12-1.62-.45-2.57-.88a46 46 0 0 1-3.07-1.53c-2.15-1.13-4.35-2.34-6.1-3-.86-.32-2.17-.54-3.73-.68a56 56 0 0 0-5.06-.18zm20.64-5.75a6 6 0 0 1 2.67.46c.63.32 1.04.8 1.5 1.3l-.73.67c-.5-.53-.79-.85-1.22-1.07a5 5 0 0 0-2.22-.36c-.53 0-1.27.33-2.3 1.11q-1.49 1.16-3.55 3.41l-1.26 1.31-.1.24-.46-.19-.46-.19.13-.32.04-.1.07-.06q1.15-1.18 1.3-1.36a32 32 0 0 1 3.69-3.53c1.04-.8 2.02-1.32 2.9-1.32"/></svg>