<svg width="24" height="24" fill="none" xmlns="http://www.w3.org/2000/svg"><path fill="currentColor" d="M5 4.6c1 0 2.02.03 2.93.12.9.08 1.73.22 2.31.44 1.05.4 2.36 1.15 3.54 1.79q.9.5 1.69.86.79.37 1.26.45c.56.1 1 .23 1.52.36 1.03.28 1.9 1.2 1.97 2.33l.28 3.78v.03c0 .96-.65 2.05-1.79 2.16l-1.72.3a3.64 3.64 0 0 1-3.57 3.28h-.06a3.64 3.64 0 0 1-3.57-3.2h-4.8l.01-1h5.76v.5c0 1.5 1.17 2.7 2.6 2.7h.06c1.42 0 2.6-1.2 2.6-2.7v-.42l2.52-.44h.05c.5-.05.9-.55.9-1.16l-.27-3.76A1.65 1.65 0 0 0 18 9.59c-.55-.14-.92-.25-1.43-.34a7 7 0 0 1-1.51-.53q-.83-.39-1.75-.9c-1.22-.65-2.44-1.35-3.42-1.73a8 8 0 0 0-2.04-.38 32 32 0 0 0-2.84-.1zM16.65.5c.66 0 1.14.02 1.53.15.43.14.7.4.99.74l-.38.33-.38.32c-.26-.3-.38-.39-.54-.45a5 5 0 0 0-1.22-.09c-.2 0-.56.15-1.13.63q-.82.7-1.97 2.06l-.68.78-.05.11-.93-.35.07-.2.03-.08.07-.07.73-.83q1.17-1.4 2.09-2.19c.59-.5 1.19-.86 1.77-.86"/></svg>