<svg width="48" height="48" fill="none" xmlns="http://www.w3.org/2000/svg"><path fill="currentColor" d="M10.09 10.9c1.76 0 3.55.04 5.15.19 1.58.14 3 .37 3.99.74 1.83.69 4.1 1.94 6.22 3.06 1.06.56 2.09 1.08 3 1.5q1.42.63 2.34.8 1.44.25 2.9.61c1.77.46 2.63 2.18 3.04 3.58a24 24 0 0 1 .85 6.01c-.11 1.7-1.47 3.28-3.23 3.4l-3.16.23a5.6 5.6 0 0 1-5.58 5.14h-.64a5.6 5.6 0 0 1-5.57-5.11h-9.31v-1h10.28v.5a4.6 4.6 0 0 0 4.6 4.6h.64a4.6 4.6 0 0 0 4.6-4.6v-.47l.46-.03 3.6-.25.23-.03c1.1-.2 2-1.26 2.08-2.44a23 23 0 0 0-.8-5.66c-.4-1.35-1.12-2.58-2.34-2.9q-1.41-.36-2.82-.6c-.74-.12-1.62-.45-2.57-.87-.96-.43-2-.97-3.07-1.53-2.15-1.13-4.35-2.34-6.1-3-.86-.32-2.17-.55-3.73-.69a56 56 0 0 0-5.06-.18z"/></svg>